# xmcd
#
# Track frame offsets: 
#        150
#        24549
#        47562
#        63853
#        97897
#        153977
#        161853
#        185457
#        203919
#        221464
#        246351
#
# Disc length: 3478 seconds
#
# Revision: 0
# Processed by: cddbd v1.5.2PL0 Copyright (c) Steve Scherf et al.
# Submitted via: ExactAudioCopy v1.3
#
DISCID=900d940b
DTITLE=Tom Waits - Real Gone In Amsterdam [Disk 1]
DYEAR=2019
DGENRE=Jazz, Blues, Rock
TTITLE0=Hoist That Rag
TTITLE1=Make It Rain
TTITLE2=Jockey Full Of Bourbon
TTITLE3=Don't Go Into That Barn
TTITLE4=Sins Of My Father
TTITLE5=Ping Pong Ball Story
TTITLE6=Straight To The Top
TTITLE7=God's Away On Business
TTITLE8=Misery Is The River Of The World
TTITLE9=Alice
TTITLE10=November
EXTD=
EXTT0=
EXTT1=
EXTT2=
EXTT3=
EXTT4=
EXTT5=
EXTT6=
EXTT7=
EXTT8=
EXTT9=
EXTT10=
PLAYORDER=
